<mxfile host="app.diagrams.net" modified="2023-12-14T15:51:23.670Z" agent="Mozilla/5.0 (Windows NT 10.0; Win64; x64) AppleWebKit/537.36 (KHTML, like Gecko) Chrome/120.0.0.0 Safari/537.36 Edg/120.0.0.0" version="22.1.8" etag="gCmr6S-1T1IiKjELlwQ4" type="github">
  <diagram name="Page-1" id="p5CU91Qs2fj-fMkNAllI">
    <mxGraphModel>
      <root>
        <mxCell id="0" />
        <mxCell id="1" parent="0" />
      </root>
    </mxGraphModel>
  </diagram>
</mxfile>
